<svg width="16" height="16" viewBox="0 0 16 16" fill="none" xmlns="http://www.w3.org/2000/svg">
<g clip-path="url(#clip0_12_127)">
<path d="M3.33202 2L1.33202 4L3.33202 2Z" fill="#E0E0E0"/>
<path d="M14.6654 4L12.6654 2L14.6654 4Z" fill="#E0E0E0"/>
<path d="M3.99869 12.6667L2.66536 14L3.99869 12.6667Z" fill="#E0E0E0"/>
<path d="M11.9987 12.6667L13.332 14L11.9987 12.6667Z" fill="#E0E0E0"/>
<path d="M7.99869 14C9.41318 14 10.7697 13.4381 11.7699 12.4379C12.7701 11.4377 13.332 10.0812 13.332 8.66667C13.332 7.25218 12.7701 5.89562 11.7699 4.89543C10.7697 3.89524 9.41318 3.33333 7.99869 3.33333C6.5842 3.33333 5.22765 3.89524 4.22745 4.89543C3.22726 5.89562 2.66536 7.25218 2.66536 8.66667C2.66536 10.0812 3.22726 11.4377 4.22745 12.4379C5.22765 13.4381 6.5842 14 7.99869 14Z" fill="#E0E0E0"/>
<path d="M3.33202 2L1.33202 4M14.6654 4L12.6654 2M3.99869 12.6667L2.66536 14M11.9987 12.6667L13.332 14M5.99869 9L7.33202 10.3333L10.332 7.33333M7.99869 14C9.41318 14 10.7697 13.4381 11.7699 12.4379C12.7701 11.4377 13.332 10.0812 13.332 8.66667C13.332 7.25218 12.7701 5.89562 11.7699 4.89543C10.7697 3.89524 9.41318 3.33333 7.99869 3.33333C6.5842 3.33333 5.22765 3.89524 4.22745 4.89543C3.22726 5.89562 2.66536 7.25218 2.66536 8.66667C2.66536 10.0812 3.22726 11.4377 4.22745 12.4379C5.22765 13.4381 6.5842 14 7.99869 14Z" stroke="#3E3D45" stroke-width="1.3" stroke-linecap="round" stroke-linejoin="round"/>
</g>
<defs>
<clipPath id="clip0_12_127">
<rect width="16" height="16" fill="white"/>
</clipPath>
</defs>
</svg>
