<svg width="40" height="40" viewBox="0 0 40 40" fill="none" xmlns="http://www.w3.org/2000/svg">
<path d="M20 11C20.7017 11 21.3872 11.2101 22.3135 11.7412C23.0276 12.1507 23.835 12.7206 24.8623 13.4775L25.9678 14.2979C26.8257 14.9368 27.4217 15.3819 27.8633 15.7695C28.2938 16.1475 28.5215 16.4239 28.668 16.6992C28.9735 17.2734 29 17.9327 29 19.9512V21.4424C29 23.4923 28.9972 24.9127 28.8291 25.9824C28.6684 27.0052 28.3763 27.5675 27.8857 27.9873C27.3726 28.4264 26.6482 28.7028 25.3721 28.8496C24.081 28.9981 22.3813 29 20 29C17.6187 29 15.919 28.9981 14.6279 28.8496C13.5113 28.7211 12.8171 28.4937 12.3174 28.1445L12.1143 27.9873C11.6237 27.5675 11.3316 27.0052 11.1709 25.9824C11.0028 24.9127 11 23.4923 11 21.4424V19.9512L11.0088 18.6719C11.0307 17.6083 11.1029 17.1298 11.332 16.6992C11.4785 16.4239 11.7062 16.1475 12.1367 15.7695C12.3574 15.5758 12.6165 15.3674 12.9277 15.1279L14.0322 14.2979C15.6161 13.1182 16.7344 12.2872 17.6865 11.7412C18.6128 11.2101 19.2983 11 20 11Z" stroke="#171717" stroke-opacity="0.3" stroke-width="2"/>
<path d="M24.1758 21.4727C24.1758 21.4727 23.318 24.3878 19.998 24.3878C16.6781 24.3878 15.8203 21.4727 15.8203 21.4727" stroke="#171717" stroke-opacity="0.3" stroke-width="2" stroke-linecap="round"/>
</svg>
