<svg width="40" height="40" viewBox="0 0 40 40" fill="none" xmlns="http://www.w3.org/2000/svg">
<g clip-path="url(#clip0_1_905)">
<path d="M19.2533 11.9753L19.489 12.1418C19.7998 12.3609 20.2191 12.3566 20.525 12.131C22.1187 10.9561 24.1811 10.6142 26.0704 11.2111C29.48 12.2922 31.0317 16.0186 29.8356 19.6776C29.1868 21.5181 28.0769 23.1956 26.6666 24.5772L26.0699 25.1763C24.7799 26.3568 23.0759 27.577 21.475 28.6401C20.5659 29.2438 19.3852 29.2592 18.4723 28.6613C16.6241 27.4506 14.9558 26.161 13.2997 24.5772C11.8969 23.2028 10.8229 21.5181 10.1679 19.6592C8.97688 16.0151 10.5218 12.2913 13.9296 11.2109C15.729 10.6409 17.6908 10.9235 19.2533 11.9753Z" stroke="#171717" stroke-opacity="0.3" stroke-width="2"/>
<path d="M22.6506 14.9982C22.8096 14.4872 23.3419 14.2054 23.8396 14.3686C25.5489 14.9291 26.761 16.5013 26.9123 18.3485C26.9561 18.883 26.5695 19.3527 26.0488 19.3976C25.5282 19.4425 25.0706 19.0457 25.0269 18.5112C24.9395 17.4442 24.2421 16.5396 23.2639 16.2188C22.7662 16.0556 22.4916 15.5091 22.6506 14.9982Z" fill="#171717" fill-opacity="0.3"/>
</g>
<defs>
<clipPath id="clip0_1_905">
<rect width="24" height="24" fill="white" transform="translate(8 8)"/>
</clipPath>
</defs>
</svg>
