<svg width="40" height="40" viewBox="0 0 40 40" fill="none" xmlns="http://www.w3.org/2000/svg">
<circle cx="19.1238" cy="13.5281" r="0.651181" fill="#171717" fill-opacity="0.3"/>
<path d="M27.171 14.7122L28.5708 29.6083L15.2617 29.6083L16.3928 19.6254C16.4415 19.1951 16.1392 18.8041 15.7106 18.743L13.8449 18.4768C12.6151 18.3014 11.6603 17.3154 11.5244 16.0807L11.443 15.3404M21.8751 10.5661C22.0827 9.80327 22.9316 10.0998 23.4524 10.3874C23.9428 10.6583 24.6991 10.7438 25.0159 10.7528C27.9494 10.7862 27.8337 12.4773 27.5901 13.422C27.3465 14.3667 26.0464 18.2579 24.1093 19.1619C22.5596 19.885 22.178 19.0532 22.1809 18.5468L21.8362 11.3471L21.8306 11.0768C21.8217 10.8694 21.8384 10.7012 21.8751 10.5661ZM21.8751 10.5661L18.5624 10.7678C17.8039 10.814 17.1824 11.3872 17.0751 12.1395L17.0332 12.4329C17.0111 12.5879 16.8801 12.7042 16.7235 12.7077L12.8768 12.7943M12.8768 12.7943L11.9818 12.8145C11.5012 12.8253 11.1385 13.2544 11.2079 13.7302L11.443 15.3404M12.8768 12.7943C13.0109 13.0636 13.0991 13.7856 12.5517 14.3964C12.0978 14.9028 11.5854 15.2708 11.443 15.3404" stroke="#171717" stroke-opacity="0.3" stroke-width="1.39966"/>
<path d="M16.5107 24.5604L27.3877 24.498L27.6009 26.9529L16.2539 27.0154L16.5107 24.5604Z" fill="#171717" fill-opacity="0.3"/>
</svg>
