<svg width="16" height="16" viewBox="0 0 16 16" fill="none" xmlns="http://www.w3.org/2000/svg">
<path d="M11.5952 11.1051C11.409 10.5511 10.9749 10.2704 10.5559 9.99899C10.1912 9.76264 9.84685 9.53931 9.62166 9.13833C9.00091 8.02763 8.65995 7.35742 7.643 7.35742C6.62605 7.35742 6.28403 8.02786 5.6618 9.13811C5.4364 9.53997 5.09036 9.76374 4.72527 10.0005C4.30622 10.2722 3.87298 10.5522 3.6861 11.1051C3.61336 11.3044 3.57676 11.5161 3.57816 11.7294C3.57816 12.6284 4.26494 13.36 5.02581 13.36C5.78667 13.36 6.78901 12.9599 7.64511 12.9599C8.50121 12.9599 9.48959 13.36 10.26 13.36C11.0304 13.36 11.7053 12.6284 11.7053 11.7294C11.7059 11.516 11.6686 11.3043 11.5952 11.1051Z" fill="#E0E0E0" stroke="#3E3D45" stroke-width="1.13262" stroke-linecap="round" stroke-linejoin="round"/>
<path d="M3.27189 8.54986C3.89979 8.28256 4.15474 7.34825 3.84133 6.46302C3.52792 5.57779 2.76483 5.07685 2.13692 5.34414C1.50901 5.61144 1.25407 6.54575 1.56748 7.43098C1.88089 8.31621 2.64398 8.81715 3.27189 8.54986Z" fill="#E0E0E0" stroke="#3E3D45" stroke-width="1.13262" stroke-linecap="round" stroke-linejoin="round"/>
<path d="M12.2554 8.54986C11.6275 8.28256 11.3726 7.34825 11.686 6.46302C11.9994 5.57779 12.7625 5.07685 13.3904 5.34414C14.0183 5.61144 14.2733 6.54575 13.9599 7.43098C13.6464 8.31621 12.8834 8.81715 12.2554 8.54986Z" fill="#E0E0E0" stroke="#3E3D45" stroke-width="1.13262" stroke-linecap="round" stroke-linejoin="round"/>
<path d="M6.03995 5.96751C6.76037 5.80809 7.19286 4.8555 7.00593 3.83983C6.819 2.82417 6.08345 2.13005 5.36303 2.28947C4.64261 2.44889 4.21012 3.40148 4.39705 4.41715C4.58398 5.43281 5.31953 6.12693 6.03995 5.96751Z" fill="#E0E0E0" stroke="#3E3D45" stroke-width="1.13262" stroke-linecap="round" stroke-linejoin="round"/>
<path d="M9.48348 5.96751C8.76306 5.80809 8.33057 4.8555 8.5175 3.83983C8.70443 2.82417 9.43998 2.13005 10.1604 2.28947C10.8808 2.44889 11.3133 3.40148 11.1264 4.41715C10.9395 5.43281 10.2039 6.12693 9.48348 5.96751Z" fill="#E0E0E0" stroke="#3E3D45" stroke-width="1.13262" stroke-linecap="round" stroke-linejoin="round"/>
</svg>
