<svg width="17" height="8" viewBox="0 0 17 8" fill="none" xmlns="http://www.w3.org/2000/svg">
<path d="M6.78516 3.73647C7.30809 3.73647 7.73242 4.05244 7.73242 4.44155V7.25893C7.73242 7.64804 7.30809 7.96401 6.78516 7.96401H5.83887C5.31593 7.96401 4.8916 7.64804 4.8916 7.25893V4.44155C4.8916 4.05244 5.31593 3.73647 5.83887 3.73647H6.78516ZM2.36621 5.14467C2.88895 5.14467 3.31315 5.45987 3.31348 5.84877V7.25795C3.31348 7.64706 2.88915 7.96303 2.36621 7.96303H1.41895C0.896191 7.96287 0.472656 7.64696 0.472656 7.25795V5.84877C0.472978 5.45997 0.89639 5.14483 1.41895 5.14467H2.36621ZM15.624 0.447406C16.1468 0.447406 16.571 0.762602 16.5713 1.15151V7.25795C16.5713 7.64706 16.147 7.96303 15.624 7.96303H14.6777C14.1548 7.96303 13.7305 7.64706 13.7305 7.25795V1.15151C13.7308 0.762602 14.155 0.447406 14.6777 0.447406H15.624ZM11.2051 2.08998C11.7279 2.09005 12.1514 2.40599 12.1514 2.79506V7.25698C12.1512 7.64596 11.7279 7.96102 11.2051 7.96108H10.2578C9.73508 7.96098 9.31166 7.64594 9.31152 7.25698V2.79506C9.31152 2.40601 9.73499 2.09008 10.2578 2.08998H11.2051Z" fill="#171717"/>
</svg>
