<svg width="15" height="8" viewBox="0 0 15 8" fill="none" xmlns="http://www.w3.org/2000/svg">
<path d="M5.31055 6.14448C6.52316 5.38198 8.29912 5.38198 9.51173 6.14448C9.57256 6.18549 9.60771 6.2436 9.60938 6.30464C9.6109 6.36555 9.57893 6.42403 9.52051 6.46675L7.62208 7.89156C7.56646 7.93339 7.49025 7.95695 7.41114 7.95698C7.33196 7.95698 7.25586 7.93342 7.2002 7.89156L5.30079 6.46675C5.24255 6.42402 5.21037 6.36546 5.21192 6.30464C5.21366 6.24351 5.24952 6.18547 5.31055 6.14448ZM2.77442 4.24214C5.38696 2.4354 9.43337 2.4354 12.0459 4.24214C12.1046 4.28448 12.1378 4.34247 12.1387 4.40327C12.1395 4.46424 12.1076 4.52311 12.0498 4.56636L10.9522 5.39058C10.839 5.47478 10.6561 5.47645 10.54 5.39448C9.68223 4.81709 8.56635 4.49702 7.40919 4.49702C6.25256 4.49738 5.13666 4.8173 4.2793 5.39448C4.16331 5.47629 3.98124 5.47461 3.86817 5.39058L2.77051 4.56636C2.71259 4.52317 2.6799 4.46426 2.68067 4.40327C2.68146 4.3424 2.71559 4.28448 2.77442 4.24214ZM0.242194 2.34859C4.24923 -0.506305 10.5701 -0.506337 14.5772 2.34859C14.6351 2.39094 14.6684 2.44836 14.669 2.50874C14.6694 2.56923 14.6374 2.62794 14.5801 2.67085L13.4815 3.49507C13.3682 3.57968 13.1843 3.58033 13.0693 3.49702C11.5427 2.418 9.51658 1.81647 7.41016 1.81636C5.30349 1.81636 3.27687 2.41792 1.75001 3.49702C1.63511 3.58046 1.45105 3.57981 1.3379 3.49507L0.239264 2.67085C0.181975 2.6279 0.149862 2.56923 0.150397 2.50874C0.151012 2.44834 0.184221 2.39092 0.242194 2.34859Z" fill="#171717"/>
</svg>
