<svg width="15" height="10" viewBox="0 0 15 10" fill="none" xmlns="http://www.w3.org/2000/svg">
<path d="M1.34057 5.21073C1.62532 4.4218 2.36831 3.89119 3.20695 3.87785L11.8053 3.74108C12.7119 3.72665 13.5168 4.31855 13.7733 5.18821L14.2266 6.72493C14.6079 8.01796 13.6387 9.31424 12.2906 9.31424H2.73377C1.33515 9.31424 0.36047 7.92623 0.835291 6.61067L1.34057 5.21073Z" fill="#1E6AAE"/>
<path d="M1.11605 5.10176C1.35721 4.22603 2.15364 3.61928 3.06197 3.61928H11.5182C12.4265 3.61928 13.2229 4.22604 13.4641 5.10177L13.8434 6.4793C14.1973 7.76438 13.2304 9.03351 11.8975 9.03351H2.68263C1.34971 9.03351 0.382823 7.76437 0.736709 6.47929L1.11605 5.10176Z" fill="#547CBA"/>
<path d="M7.0665 1.42157C3.69375 -0.780358 2.63195 1.96062 2.52264 3.60635H12.3304C11.972 0.849015 9.91448 1.27264 8.9305 1.82913C8.19451 1.11874 7.38117 1.26143 7.0665 1.42157Z" fill="#DA8A70"/>
<path d="M4.11823 2.37684L4.61261 2.7274M6.63104 1.84036L6.17786 2.25235M7.18722 3.03496L7.5786 2.91137M8.64975 2.25235L8.93814 2.7274M10.6479 2.54058L10.4007 2.91137" stroke="black" stroke-width="0.807341"/>
<path d="M8.25504 6.83491H6.32542C6.31684 6.96348 6.26863 7.08114 6.19305 7.1762C6.08045 7.31763 5.90669 7.40841 5.71169 7.40841C5.37195 7.40841 5.0965 7.13296 5.0965 6.79322C5.0965 6.60543 5.18065 6.43751 5.31331 6.32452C5.18065 6.21153 5.0965 6.04361 5.0965 5.85582C5.0965 5.51608 5.37195 5.24063 5.71169 5.24063C6.03224 5.24063 6.29542 5.48569 6.32415 5.79894H8.25631C8.28504 5.48569 8.54832 5.24063 8.86887 5.24063C9.20861 5.24063 9.48396 5.51608 9.48396 5.85582C9.48396 6.04361 9.4 6.21114 9.26763 6.32413C9.4003 6.43712 9.48396 6.60543 9.48396 6.79322C9.48396 7.13296 9.20861 7.40841 8.86887 7.40841C8.54316 7.40841 8.27647 7.15516 8.25504 6.83491Z" fill="#171717"/>
</svg>
